<svg width="50" height="50" viewBox="0 0 50 50" fill="none" xmlns="http://www.w3.org/2000/svg">
<path d="M28.9736 5.32161L33.0211 13.4836C33.5731 14.6198 35.0449 15.7096 36.2868 15.9183L43.6229 17.1472C48.3144 17.9356 49.4183 21.3674 46.0377 24.7527L40.3343 30.5032C39.3684 31.4771 38.8395 33.3553 39.1384 34.7002L40.7713 41.8187C42.0591 47.4533 39.0924 49.6329 34.148 46.6881L27.2718 42.5839C26.0299 41.8419 23.9831 41.8419 22.7183 42.5839L15.842 46.6881C10.9206 49.6329 7.93089 47.4301 9.21875 41.8187L10.8516 34.7002C11.1505 33.3553 10.6216 31.4771 9.6557 30.5032L3.95233 24.7527C0.5947 21.3674 1.67558 17.9356 6.36706 17.1472L13.7033 15.9183C14.9221 15.7096 16.394 14.6198 16.9459 13.4836L20.9934 5.32161C23.2012 0.892797 26.7888 0.892797 28.9736 5.32161Z" fill="#FFF500" stroke="#292D32" stroke-width="1.5" stroke-linecap="round" stroke-linejoin="round"/>
</svg>
