<svg width="48" height="48" viewBox="0 0 48 48" fill="none" xmlns="http://www.w3.org/2000/svg">
<path d="M27.9736 4.32161L32.0211 12.4836C32.5731 13.6198 34.0449 14.7096 35.2868 14.9183L42.6229 16.1472C47.3144 16.9356 48.4183 20.3674 45.0377 23.7527L39.3343 29.5032C38.3684 30.4771 37.8395 32.3553 38.1384 33.7002L39.7713 40.8187C41.0591 46.4533 38.0924 48.6329 33.148 45.6881L26.2718 41.5839C25.0299 40.8419 22.9831 40.8419 21.7183 41.5839L14.842 45.6881C9.92056 48.6329 6.93089 46.4301 8.21875 40.8187L9.85157 33.7002C10.1505 32.3553 9.62159 30.4771 8.6557 29.5032L2.95233 23.7527C-0.4053 20.3674 0.675581 16.9356 5.36706 16.1472L12.7033 14.9183C13.9221 14.7096 15.394 13.6198 15.9459 12.4836L19.9934 4.32161C22.2012 -0.107203 25.7888 -0.107203 27.9736 4.32161Z" stroke="#292D32" stroke-width="1.5" stroke-linecap="round" stroke-linejoin="round"/>
</svg>
